PathFileType	4	(X/Y/Z)	c:/Users/goper/Files/vsCode/490R/osim_files/C11/C11_SSWS_05.trc
DataRate	CameraRate	NumFrames	NumMarkers	Units                	OrigDataRate	OrigDataStartFrame	OrigNumFrames
120.00	120.00	9	36	mm	120.0	684	1366
                Frame#	Time	LPSI			LASI			LTH1			LTH2			LTH3			LTH4			LLFE			LMFE			LSH1			LSH2			LSH3			LSH4			LLMA			LMMA			LCAL			LMTP			LTOE			LMTP			RPSI			RASI			RTH1			RTH2			RTH3			RTH4			RLFE			RMFE			RSH1			RSH2			RSH3			RSH4			RLMA			RMMA			RCAL			RMTP			RTOE			RMTP		
		X1	Y1	Z1	X2	Y2	Z2	X3	Y3	Z3	X4	Y4	Z4	X5	Y5	Z5	X6	Y6	Z6	X7	Y7	Z7	X8	Y8	Z8	X9	Y9	Z9	X10	Y10	Z10	X11	Y11	Z11	X12	Y12	Z12	X13	Y13	Z13	X14	Y14	Z14	X15	Y15	Z15	X16	Y16	Z16	X17	Y17	Z17	X18	Y18	Z18	X19	Y19	Z19	X20	Y20	Z20	X21	Y21	Z21	X22	Y22	Z22	X23	Y23	Z23	X24	Y24	Z24	X25	Y25	Z25	X26	Y26	Z26	X27	Y27	Z27	X28	Y28	Z28	X29	Y29	Z29	X30	Y30	Z30	X31	Y31	Z31	X32	Y32	Z32	X33	Y33	Z33	X34	Y34	Z34	X35	Y35	Z35	X36	Y36	Z36

684	5.69167	-154.63094	968.36676	236.53265	-325.15775	970.27136	317.84805	-232.34605	569.21863	341.99603	-238.23938	522.00629	342.51193	-285.84293	570.23285	370.30795	-285.22943	523.97729	363.89548	-254.05225	465.37784	356.99094	-298.91354	452.27380	246.63309	-156.23758	442.31262	353.84479	-120.19205	417.08795	351.84598	-187.00284	389.05536	364.16116	-146.12851	371.30743	360.71542	90.25392	264.59894	286.16437	50.12269	239.07277	198.83211	130.56201	306.30609	221.04030	114.76232	142.02000	312.00522	60.31715	80.43095	255.98277	81.56944	109.79854	206.21130	-163.69664	987.22595	154.89514	-335.15280	972.31299	87.18399	-360.15820	616.04858	53.13976	-376.86282	577.02460	63.84484	-418.95258	635.57440	64.49464	-426.31122	593.47504	71.84986	-420.69125	507.53513	87.29711	-394.92105	491.55301	197.51135	-365.91122	393.88159	74.35363	-372.25250	348.59772	79.17285	-428.24863	395.51016	83.13132	-424.61298	347.87750	85.07727	-389.22333	94.17310	139.84355	-424.10019	106.40976	233.73753	-332.57281	59.47567	201.43390	-550.03088	50.37440	202.30070	-549.16888	64.35034	152.11356	-501.97009	41.50627	95.05340
685	5.70000	-163.95670	970.13391	236.42496	-334.58240	972.31372	317.49918	-250.24474	570.47083	341.28412	-257.09448	523.36469	342.03864	-303.32309	572.62073	370.38657	-303.72766	526.38226	364.02246	-274.74353	467.69937	357.53339	-319.30856	454.95331	246.47571	-177.86867	445.00098	354.57388	-141.71422	419.91498	352.99017	-208.46283	391.85925	364.77353	-167.62775	373.91943	361.58865	70.75938	270.09729	287.63672	30.94636	243.57817	200.55977	111.12437	311.01880	222.13147	95.31303	148.10722	315.11023	41.10306	85.51057	260.01944	62.48515	114.35797	209.72305	-173.02304	989.00507	154.81314	-344.32138	974.39471	86.73809	-366.17899	616.84113	52.71438	-382.09564	577.64990	63.54485	-424.94818	635.75232	64.42957	-431.59335	593.64062	71.70023	-424.76541	507.56433	87.15871	-399.00024	491.93857	197.42963	-368.30594	394.51654	74.70078	-374.16898	349.17712	79.44127	-430.67963	395.43484	82.96931	-426.69308	348.11786	85.26340	-389.30481	94.26814	139.95831	-424.13910	106.47520	233.68228	-332.54004	59.53101	201.39339	-550.06122	50.35833	202.25728	-549.12500	64.23949	152.06744	-501.93155	41.50534	94.97004
686	5.70833	-173.22543	972.13049	236.33052	-343.89798	974.48553	317.07928	-268.03204	572.10162	340.92841	-275.82086	525.10522	341.69830	-320.85770	575.28137	370.53818	-322.31741	529.05084	364.11279	-295.26532	470.57730	358.18652	-339.63657	458.05832	246.44293	-199.23843	448.20404	355.22116	-162.84068	423.32983	353.98599	-229.69757	394.83469	365.45178	-188.60361	377.17145	362.52124	51.25148	275.02902	289.09372	11.12843	247.72246	202.37140	92.17055	314.38135	223.03555	74.14242	153.11441	318.46317	19.15862	90.53206	264.28561	40.85691	118.29108	213.58849	-182.14111	991.00586	154.62207	-353.36328	976.41052	86.27837	-371.07867	617.46228	54.16482	-387.12241	578.31915	63.27253	-430.64127	636.00281	64.33012	-436.88565	593.85840	71.52216	-428.35568	507.55185	86.88240	-402.61206	492.08871	197.35521	-370.75375	395.06186	74.73174	-376.13382	349.72830	79.35629	-433.11682	395.38522	82.86674	-428.64270	348.12491	85.09331	-389.34842	94.34280	140.02254	-424.14832	106.50899	233.62494	-332.51794	59.57816	201.38942	-550.24860	50.52930	202.36005	-549.12964	64.14417	152.04385	-501.94067	41.48368	94.92526
687	5.71667	-182.31952	974.33508	236.21475	-353.18793	976.84088	316.66281	-285.81232	574.12335	340.91690	-294.55371	527.23511	341.64862	-338.42255	578.39587	370.72504	-340.84280	532.20312	364.31241	-315.53259	473.89957	358.58749	-359.89468	461.74521	246.36395	-220.11580	451.99030	355.75464	-183.60220	427.26953	354.77454	-250.40376	398.61432	366.14734	-209.05515	381.13022	363.47083	31.38091	278.89471	290.48703	-9.38273	251.11171	204.40967	73.56693	316.55676	224.52052	51.88629	157.10159	321.89691	-4.69341	94.80591	268.82294	17.55720	121.27070	217.62712	-191.21643	993.10406	154.47263	-362.29187	978.29034	85.84247	-376.57465	618.34875	53.90396	-391.87247	578.99774	63.01451	-436.06650	636.13531	64.46002	-441.71362	593.89587	71.38179	-431.88388	507.50168	86.70029	-405.76593	492.13824	197.27324	-373.13715	395.49005	74.43832	-378.19507	350.01749	79.11050	-435.44363	395.30884	82.73794	-431.57864	347.67862	85.37217	-389.36386	94.43382	140.04001	-424.17722	106.53731	233.58322	-332.49899	59.64016	201.37659	-550.24109	50.46587	202.33611	-549.14526	64.08088	152.03020	-501.94696	41.46920	94.89248
688	5.72500	-191.29561	976.63409	236.17982	-362.35452	979.40155	316.33273	-303.50488	576.41693	341.35989	-313.27765	529.70679	341.93610	-355.93716	581.81122	371.10364	-359.29803	535.71692	364.55502	-335.48566	477.70447	358.98230	-379.99118	465.99896	246.22345	-240.36885	456.08084	356.50186	-203.98495	431.44327	355.24597	-270.70407	402.77191	366.83398	-229.63951	385.24020	364.06232	11.16385	281.62268	291.92172	-29.85725	253.73026	206.25230	54.87679	317.47150	225.58209	28.41905	159.87199	325.45618	-29.67993	98.27980	273.28311	-6.72743	123.37482	221.69833	-200.10597	995.29016	154.30788	-371.57352	980.29016	85.37522	-381.58740	619.14227	53.82195	-396.27737	579.78497	62.75071	-441.26559	636.24774	64.60935	-446.34039	594.09241	71.49203	-434.95142	507.55716	86.59233	-408.51520	492.22202	197.11577	-375.35913	395.64395	74.00500	-380.16156	350.28262	78.75089	-437.79950	395.18073	82.65641	-432.70776	349.63406	82.74921	-389.39511	94.55714	140.03627	-424.19446	106.55981	233.54019	-332.53467	59.67894	201.35097	-550.22137	50.43632	202.31955	-549.14594	64.01876	152.01161	-501.94098	41.43756	94.87098
689	5.73333	-200.23941	979.04321	236.08678	-371.45065	982.05261	315.93958	-320.93689	579.10260	342.01602	-332.15381	532.66144	342.50790	-373.47644	585.69409	371.52448	-377.82300	539.65332	364.85916	-355.16330	481.77380	359.15457	-399.75882	470.68582	246.07571	-260.44641	460.34464	356.55600	-224.12581	435.53531	355.43616	-290.89966	406.88931	367.43768	-249.89700	389.56714	364.69070	-9.44718	283.24481	293.42957	-50.95015	255.32388	208.15535	35.21746	316.33960	226.13600	4.12493	161.57146	329.02533	-54.40817	100.29507	277.21005	-31.69146	124.53012	225.64285	-209.05455	997.48199	154.13809	-379.10172	981.62860	85.05022	-386.57886	620.03796	53.79049	-400.57449	580.42743	62.56773	-445.39532	635.88385	64.81902	-450.63388	594.15314	71.51530	-437.82654	507.54343	86.41587	-411.08981	492.82449	196.64723	-377.55750	395.87320	73.44650	-381.98785	350.41452	78.30477	-439.86798	394.97879	82.57746	-434.28201	349.29138	83.12934	-389.41455	94.65913	140.03178	-424.19653	106.62621	233.50496	-332.54706	59.74382	201.33450	-550.20319	50.41528	202.29231	-549.10553	63.93227	151.97275	-501.92261	41.41470	94.83439
690	5.74167	-209.17784	981.43555	236.06906	-380.45590	984.75793	315.56522	-338.24155	582.07996	343.03314	-350.05048	535.97394	343.31427	-390.84109	589.76990	372.01462	-396.12042	543.94952	365.21271	-374.54285	485.77963	359.38406	-419.03009	475.67200	245.97520	-280.23822	464.47235	356.39645	-244.15514	439.38403	355.41425	-311.04031	410.88571	367.95175	-270.16260	393.69711	365.23987	-30.74221	283.79050	295.03604	-72.40379	255.88542	209.92421	15.48814	314.58517	227.66466	-21.04668	162.30191	332.56824	-82.36225	103.22514	282.11218	-57.19337	124.89265	229.61069	-218.01682	999.62427	153.91855	-387.63925	983.36572	84.62528	-390.86063	620.75446	53.94180	-404.41541	581.14850	62.35301	-450.09894	635.85291	65.01674	-454.74957	594.22693	71.47305	-440.56958	507.56595	86.27165	-413.55850	492.79474	196.70399	-379.26978	396.03824	72.99348	-383.57224	350.60529	77.94614	-441.05118	394.99985	82.11282	-435.61325	349.04510	83.24875	-389.44522	94.72347	140.05823	-424.27405	106.67483	233.47102	-332.57840	59.79723	201.30927	-550.20886	50.39701	202.23456	-549.10638	63.86313	151.93588	-501.90778	41.38026	94.78597
691	5.75000	-217.87677	983.85657	236.09167	-389.43378	987.43231	315.17993	-355.17709	585.32330	344.27615	-368.50281	539.43555	344.31418	-407.95804	594.12280	372.57300	-414.18713	548.46918	365.58752	-393.55499	489.96423	359.62515	-437.63779	480.82376	245.97623	-299.85324	468.15479	356.15710	-263.95673	442.72189	355.38153	-331.10257	414.74637	368.39914	-290.51483	397.54614	365.77023	-52.33007	283.53394	296.94696	-94.20417	255.50078	211.82455	-4.74395	311.70447	229.35486	-46.77498	162.11063	336.11090	-109.36055	104.17037	285.94873	-82.63968	124.37184	233.99614	-226.72505	1001.72528	153.76833	-396.24603	985.11383	84.26844	-394.73737	621.41962	54.19694	-408.01691	581.83563	62.20224	-454.57358	636.02142	65.22664	-458.54257	594.28113	71.44809	-442.89963	507.54523	86.07542	-415.42065	492.96811	196.48053	-380.70963	396.45172	72.69746	-384.61838	350.84952	77.75640	-443.12036	394.81567	82.28035	-436.82773	348.87622	83.24075	-388.59641	95.28011	139.44545	-424.23401	106.65868	233.46123	-333.05966	59.64232	201.87413	-550.16852	50.30919	202.18611	-549.07855	63.76357	151.88072	-501.89395	41.33024	94.71739
692	5.75833	-226.72993	986.13556	236.23259	-398.29654	990.18213	314.88150	-371.95490	588.72797	345.60715	-386.19498	543.16840	345.39944	-425.23349	598.68713	373.27966	-431.96362	553.22754	365.99213	-412.27499	494.29095	359.87198	-455.59045	486.03925	246.09938	-319.07373	471.53049	355.95435	-283.55139	445.55670	355.42255	-351.06311	418.45673	368.80255	-310.16968	400.79562	367.24408	-74.42451	282.03311	298.79245	-116.20152	254.34996	214.89925	-25.46537	307.87204	231.39258	-72.97473	161.14017	339.60126	-136.92052	104.44618	289.46579	-109.48598	122.83137	236.73430	-235.36864	1003.80762	153.76439	-404.80341	986.79834	83.95169	-399.31155	621.99463	53.57591	-411.41916	582.45703	62.15924	-458.75018	636.03009	65.21450	-462.01132	594.32513	71.38390	-444.98257	507.69965	85.85326	-417.46375	493.04349	196.34805	-381.68994	396.76022	72.65139	-385.49503	351.25519	77.54353	-443.57056	395.07294	81.70451	-437.71960	348.87430	83.13084	-389.16479	95.07870	139.79382	-424.26147	106.69972	233.47289	-331.72864	59.80514	200.45543	-550.13721	50.28323	202.10944	-549.04266	63.71231	151.84189	-501.89380	41.33470	94.65604
